<svg xmlns="http://www.w3.org/2000/svg" viewBox="0 0 1600 900" role="img" aria-labelledby="title desc">
  <title id="title">Video2World</title><desc id="desc">A video becomes an executable simulator scene, controls, rollout and judge result.</desc>
  <rect width="1600" height="900" fill="#f7f4ec"/>
  <path d="M0 0h1600v82H0z" fill="#17242b"/>
  <text x="72" y="54" fill="#f7f4ec" font-family="Arial,sans-serif" font-size="24" letter-spacing="4">VIDEO → EXECUTABLE WORLD</text>
  <text x="72" y="180" fill="#17242b" font-family="Georgia,serif" font-size="72" font-weight="700">Video2World</text>
  <text x="72" y="232" fill="#53616a" font-family="Arial,sans-serif" font-size="27">Benchmarking coding agents for interactive world modeling</text>
  <g font-family="Arial,sans-serif">
    <rect x="72" y="312" width="350" height="340" rx="8" fill="#fff" stroke="#cad1d3" stroke-width="3"/>
    <rect x="108" y="352" width="278" height="175" rx="4" fill="#dbe7e8"/>
    <path d="M224 395l92 44-92 44z" fill="#2d7297"/>
    <text x="108" y="580" fill="#2d7297" font-size="21" font-weight="700">INPUT</text><text x="108" y="615" fill="#28343b" font-size="25">one embodied video</text>
    <path d="M447 482h102" stroke="#2d7297" stroke-width="8"/><path d="M542 458l34 24-34 24" fill="#2d7297"/>
    <rect x="584" y="312" width="432" height="340" rx="8" fill="#fff" stroke="#cad1d3" stroke-width="3"/>
    <g fill="#eef1f1" stroke="#64747c" stroke-width="3"><rect x="622" y="352" width="160" height="128"/><rect x="817" y="352" width="160" height="128"/><rect x="622" y="506" width="160" height="94"/><rect x="817" y="506" width="160" height="94"/></g>
    <text x="642" y="425" fill="#17242b" font-size="23">scene</text><text x="837" y="425" fill="#17242b" font-size="23">assets</text><text x="642" y="562" fill="#17242b" font-size="23">actions</text><text x="837" y="562" fill="#17242b" font-size="23">protocol</text>
    <path d="M1041 482h102" stroke="#2f7d6b" stroke-width="8"/><path d="M1136 458l34 24-34 24" fill="#2f7d6b"/>
    <rect x="1178" y="312" width="350" height="340" rx="8" fill="#fff" stroke="#cad1d3" stroke-width="3"/>
    <circle cx="1353" cy="439" r="86" fill="#e5f0ec" stroke="#2f7d6b" stroke-width="5"/><path d="M1312 441l29 29 58-67" fill="none" stroke="#2f7d6b" stroke-width="12" stroke-linecap="round" stroke-linejoin="round"/>
    <text x="1214" y="580" fill="#2f7d6b" font-size="21" font-weight="700">EVALUATE</text><text x="1214" y="615" fill="#28343b" font-size="25">physics + task judge</text>
  </g>
  <g transform="translate(72 738)" font-family="Arial,sans-serif"><text fill="#53616a" font-size="22">189 videos</text><text x="228" fill="#53616a" font-size="22">222 instances</text><text x="468" fill="#53616a" font-size="22">39 families</text><text x="690" fill="#53616a" font-size="22">3 simulators</text><text x="910" fill="#53616a" font-size="22">9 agent systems</text><text x="1195" fill="#2d7297" font-size="22" font-weight="700">best 48.52 / 100</text></g>
</svg>
